<svg width="18" height="18" viewBox="0 0 18 18" fill="none" xmlns="http://www.w3.org/2000/svg">
<path d="M15.75 12.4679V5.5321C15.75 5.43229 15.7234 5.33428 15.6731 5.24813C15.6227 5.16197 15.5503 5.09077 15.4633 5.04184L9.27577 1.56137C9.19158 1.51401 9.0966 1.48913 9 1.48913C8.9034 1.48913 8.80842 1.51401 8.72423 1.56137L2.53673 5.04184C2.44974 5.09077 2.37733 5.16197 2.32694 5.24813C2.27656 5.33428 2.25 5.43229 2.25 5.5321V12.4679C2.25 12.5677 2.27656 12.6657 2.32694 12.7519C2.37733 12.838 2.44974 12.9092 2.53673 12.9582L8.72423 16.4386C8.80842 16.486 8.9034 16.5109 9 16.5109C9.0966 16.5109 9.19158 16.486 9.27577 16.4386L15.4633 12.9582C15.5503 12.9092 15.6227 12.838 15.6731 12.7519C15.7234 12.6657 15.75 12.5677 15.75 12.4679Z" stroke="white" stroke-width="2" stroke-linecap="round" stroke-linejoin="round"/>
<path d="M15.6727 5.24713L9.06695 8.99999L2.32812 5.2465" stroke="white" stroke-width="2" stroke-linecap="round" stroke-linejoin="round"/>
<path d="M9.06698 9L9.00098 16.5109" stroke="white" stroke-width="2" stroke-linecap="round" stroke-linejoin="round"/>
</svg>
