<svg width="52" height="52" viewBox="0 0 52 52" fill="none" xmlns="http://www.w3.org/2000/svg">
<path d="M26 11.375V17.875M5.59476 27.0325L11.8733 28.7148M46.4052 27.0325L40.1267 28.7148M21.0124 39L34.9031 20.8972M4.875 37.375V32.7293C4.875 21.0539 14.25 11.4155 25.9253 11.3751C28.7057 11.3653 31.4608 11.9045 34.0324 12.9617C36.604 14.0189 38.9416 15.5734 40.9112 17.536C42.8807 19.4986 44.4435 21.8307 45.5098 24.3986C46.5761 26.9664 47.125 29.7195 47.125 32.5V37.375C47.125 37.806 46.9538 38.2193 46.649 38.524C46.3443 38.8288 45.931 39 45.5 39H6.5C6.06902 39 5.6557 38.8288 5.35095 38.524C5.0462 38.2193 4.875 37.806 4.875 37.375Z" stroke="url(#paint0_linear)" stroke-width="2" stroke-linecap="round" stroke-linejoin="round"/>
<defs>
<linearGradient id="paint0_linear" x1="31.5" y1="2.52082" x2="10.4602" y2="43.2013" gradientUnits="userSpaceOnUse">
<stop stop-color="#8800FF"/>
<stop offset="1" stop-color="#4500FF"/>
</linearGradient>
</defs>
</svg>
