<svg width="80" height="80" viewBox="0 0 80 80" fill="none" xmlns="http://www.w3.org/2000/svg">
<rect width="80" height="80" fill="white"/>
<mask id="path-1-inside-1" fill="white">
<rect x="19" y="67" width="43" height="12" rx="1"/>
</mask>
<rect x="19" y="67" width="43" height="12" rx="1" fill="white" stroke="#95CB3E" stroke-width="4" mask="url(#path-1-inside-1)"/>
<path d="M16 11.5146L29.3205 2L51.6599 2L64 11.4924L64 69H16L16 11.5146Z" fill="white" stroke="#95CB3E" stroke-width="2"/>
<path d="M28 19C28 14.0294 32.0294 10 37 10H43C47.9706 10 52 14.0294 52 19V53H28V19Z" fill="white" stroke="#95CB3E" stroke-width="2"/>
<rect x="28" y="25" width="24" height="21" fill="white" stroke="#95CB3E" stroke-width="2"/>
<path d="M11 51H16V57H11L11 51Z" fill="white" stroke="#95CB3E" stroke-width="2"/>
<path d="M69 25L64 25V33H69L69 25Z" fill="white" stroke="#95CB3E" stroke-width="2"/>
<path d="M22 56C22 53.7909 23.7909 52 26 52H55C57.2091 52 59 53.7909 59 56V69H22V56Z" fill="white" stroke="#95CB3E" stroke-width="2"/>
<mask id="path-8-inside-2" fill="white">
<rect x="27" y="55" width="13" height="11" rx="1"/>
</mask>
<rect x="27" y="55" width="13" height="11" rx="1" fill="white" stroke="#95CB3E" stroke-width="4" mask="url(#path-8-inside-2)"/>
<mask id="path-9-inside-3" fill="white">
<rect x="42" y="55" width="5" height="5" rx="1"/>
</mask>
<rect x="42" y="55" width="5" height="5" rx="1" fill="white" stroke="#95CB3E" stroke-width="4" mask="url(#path-9-inside-3)"/>
<mask id="path-10-inside-4" fill="white">
<rect x="42" y="61" width="5" height="5" rx="1"/>
</mask>
<rect x="42" y="61" width="5" height="5" rx="1" fill="white" stroke="#95CB3E" stroke-width="4" mask="url(#path-10-inside-4)"/>
<mask id="path-11-inside-5" fill="white">
<rect x="48" y="55" width="5" height="5" rx="1"/>
</mask>
<rect x="48" y="55" width="5" height="5" rx="1" fill="white" stroke="#95CB3E" stroke-width="4" mask="url(#path-11-inside-5)"/>
<mask id="path-12-inside-6" fill="white">
<rect x="48" y="61" width="5" height="5" rx="1"/>
</mask>
<rect x="48" y="61" width="5" height="5" rx="1" fill="white" stroke="#95CB3E" stroke-width="4" mask="url(#path-12-inside-6)"/>
<circle cx="40" cy="35" r="5" fill="white" stroke="#95CB3E" stroke-width="2"/>
</svg>
