<svg width="80" height="80" viewBox="0 0 80 80" fill="none" xmlns="http://www.w3.org/2000/svg">
<rect x="14" y="2" width="50" height="72" rx="7" fill="white" stroke="#95CB3E" stroke-width="2"/>
<rect x="69" y="34" width="6" height="58" rx="3" transform="rotate(90 69 34)" fill="white" stroke="#95CB3E" stroke-width="2"/>
<rect x="10" y="14" width="10" height="58" rx="4" fill="white" stroke="#95CB3E" stroke-width="2"/>
<rect x="60" y="14" width="10" height="58" rx="4" fill="white" stroke="#95CB3E" stroke-width="2"/>
<path d="M5 53H10V59H5L5 53Z" fill="white" stroke="#95CB3E" stroke-width="2"/>
<path d="M75 40L70 40V48H75L75 40Z" fill="white" stroke="#95CB3E" stroke-width="2"/>
<circle cx="37" cy="37" r="9" fill="white" stroke="#95CB3E" stroke-width="2"/>
<path d="M15 58C15 55.7909 16.7909 54 19 54H61C63.2091 54 65 55.7909 65 58V74C65 76.2091 63.2091 78 61 78H19C16.7909 78 15 76.2091 15 74V58Z" fill="white" stroke="#95CB3E" stroke-width="2"/>
<mask id="path-9-inside-1" fill="white">
<rect x="20" y="59" width="16.25" height="13.75" rx="1"/>
</mask>
<rect x="20" y="59" width="16.25" height="13.75" rx="1" fill="white" stroke="#95CB3E" stroke-width="4" mask="url(#path-9-inside-1)"/>
<mask id="path-10-inside-2" fill="white">
<rect x="38.75" y="59" width="6.25" height="6.25" rx="1"/>
</mask>
<rect x="38.75" y="59" width="6.25" height="6.25" rx="1" fill="white" stroke="#95CB3E" stroke-width="4" mask="url(#path-10-inside-2)"/>
<mask id="path-11-inside-3" fill="white">
<rect x="38.75" y="66.5" width="6.25" height="6.25" rx="1"/>
</mask>
<rect x="38.75" y="66.5" width="6.25" height="6.25" rx="1" fill="white" stroke="#95CB3E" stroke-width="4" mask="url(#path-11-inside-3)"/>
<mask id="path-12-inside-4" fill="white">
<rect x="46.25" y="59" width="6.25" height="6.25" rx="1"/>
</mask>
<rect x="46.25" y="59" width="6.25" height="6.25" rx="1" fill="white" stroke="#95CB3E" stroke-width="4" mask="url(#path-12-inside-4)"/>
<mask id="path-13-inside-5" fill="white">
<rect x="53.75" y="59" width="6.25" height="6.25" rx="1"/>
</mask>
<rect x="53.75" y="59" width="6.25" height="6.25" rx="1" fill="white" stroke="#95CB3E" stroke-width="4" mask="url(#path-13-inside-5)"/>
<mask id="path-14-inside-6" fill="white">
<rect x="46.25" y="66.5" width="6.25" height="6.25" rx="1"/>
</mask>
<rect x="46.25" y="66.5" width="6.25" height="6.25" rx="1" fill="white" stroke="#95CB3E" stroke-width="4" mask="url(#path-14-inside-6)"/>
<mask id="path-15-inside-7" fill="white">
<rect x="53.75" y="66.5" width="6.25" height="6.25" rx="1"/>
</mask>
<rect x="53.75" y="66.5" width="6.25" height="6.25" rx="1" fill="white" stroke="#95CB3E" stroke-width="4" mask="url(#path-15-inside-7)"/>
</svg>
