<svg width="80" height="80" viewBox="0 0 80 80" fill="none" xmlns="http://www.w3.org/2000/svg">
<rect width="80" height="80" fill="white"/>
<path d="M3.10498 29C4.10494 22 9.10498 21.5 12.605 21.5H69.105C72.105 21.8333 77.105 23.5 77.105 30C77.105 33.2529 76.216 35.5556 73.105 37.5C69.105 40 53.805 44 40.605 44C23.605 44 8.10498 37.5 8.10498 37.5C8.10498 37.5 2.14334 35.7317 3.10498 29Z" fill="white"/>
<path d="M3.10498 29C4.10494 22 9.10498 21.5 12.605 21.5H69.105C72.105 21.8333 77.105 23.5 77.105 30M3.10498 29C2.14334 35.7317 8.10498 37.5 8.10498 37.5C8.10498 37.5 23.605 44 40.605 44C53.805 44 69.105 40 73.105 37.5C76.216 35.5556 77.105 33.2529 77.105 30M3.10498 29C5.60498 30.5 14.005 33.5 27.605 33.5C44.605 33.5 58.605 29.5 65.105 29.5C70.305 29.5 73.605 29.5 77.105 30" stroke="#95CB3E" stroke-width="2"/>
<path d="M4 4H27.5" stroke="#95CB3E" stroke-width="2" stroke-linecap="round" stroke-linejoin="round"/>
<path d="M50 4H73.5" stroke="#95CB3E" stroke-width="2" stroke-linecap="round" stroke-linejoin="round"/>
<mask id="path-5-inside-1" fill="white">
<rect x="12" y="4" width="8" height="8" rx="1"/>
</mask>
<rect x="12" y="4" width="8" height="8" rx="1" fill="white" stroke="#95CB3E" stroke-width="4" mask="url(#path-5-inside-1)"/>
<mask id="path-6-inside-2" fill="white">
<rect x="58" y="4" width="8" height="8" rx="1"/>
</mask>
<rect x="58" y="4" width="8" height="8" rx="1" fill="white" stroke="#95CB3E" stroke-width="4" mask="url(#path-6-inside-2)"/>
<mask id="path-7-inside-3" fill="white">
<rect x="34.1055" y="43" width="12" height="11" rx="1"/>
</mask>
<rect x="34.1055" y="43" width="12" height="11" rx="1" fill="white" stroke="#95CB3E" stroke-width="4" mask="url(#path-7-inside-3)"/>
<mask id="path-8-inside-4" fill="white">
<rect x="19.1055" y="59" width="12" height="8" rx="1"/>
</mask>
<rect x="19.1055" y="59" width="12" height="8" rx="1" fill="white" stroke="#95CB3E" stroke-width="4" mask="url(#path-8-inside-4)"/>
<mask id="path-9-inside-5" fill="white">
<rect x="50.1055" y="59" width="12" height="8" rx="1"/>
</mask>
<rect x="50.1055" y="59" width="12" height="8" rx="1" fill="white" stroke="#95CB3E" stroke-width="4" mask="url(#path-9-inside-5)"/>
<path d="M10 11L22 11V21.5H10L10 11Z" fill="white" stroke="#95CB3E" stroke-width="2"/>
<path d="M56 11L68 11V21.5H56L56 11Z" fill="white" stroke="#95CB3E" stroke-width="2"/>
<mask id="path-12-inside-6" fill="white">
<rect x="24.1055" y="52" width="32" height="22" rx="1"/>
</mask>
<rect x="24.1055" y="52" width="32" height="22" rx="1" fill="white" stroke="#95CB3E" stroke-width="4" mask="url(#path-12-inside-6)"/>
<circle cx="40.1055" cy="63" r="5" fill="white" stroke="#95CB3E" stroke-width="2"/>
<path d="M6.62548 53.568L15.1055 40L21.1055 41.5L13.0795 54.5951C12.1156 56.1677 11.6055 57.9762 11.6055 59.8207V72.25C11.6055 74.0449 10.1504 75.5 8.35547 75.5C6.56054 75.5 5.10547 74.0449 5.10547 72.25V58.868C5.10547 56.9938 5.63216 55.1573 6.62548 53.568Z" fill="white" stroke="#95CB3E" stroke-width="2"/>
<path d="M75.5855 53.568L67.1055 40L61.1055 41.5L69.1315 54.5951C70.0953 56.1677 70.6055 57.9762 70.6055 59.8207V72.25C70.6055 74.0449 72.0605 75.5 73.8555 75.5C75.6504 75.5 77.1055 74.0449 77.1055 72.25V58.868C77.1055 56.9938 76.5788 55.1573 75.5855 53.568Z" fill="white" stroke="#95CB3E" stroke-width="2"/>
</svg>
