<svg width="13" height="14" viewBox="0 0 13 14" fill="none" xmlns="http://www.w3.org/2000/svg">
<g opacity="0.99">
<path fill-rule="evenodd" clip-rule="evenodd" d="M6.17192 0.848047C6.30268 0.84785 6.44334 0.847907 6.59516 0.847963L6.84535 0.848047C8.84962 0.848047 9.08717 0.855226 9.87866 0.891206C10.6106 0.924681 11.0078 1.04701 11.2724 1.14977C11.6227 1.28583 11.8725 1.4485 12.1351 1.71126C12.3978 1.97404 12.5604 2.2243 12.6968 2.57464C12.7995 2.83897 12.922 3.23627 12.9553 3.96826C12.9913 4.75968 12.9991 4.99743 12.9991 7.00102C12.9991 9.00464 12.9913 9.24237 12.9553 10.0338C12.9219 10.7658 12.7995 11.1631 12.6968 11.4274C12.5608 11.7778 12.3978 12.0272 12.1351 12.2899C11.8723 12.5526 11.6229 12.7153 11.2724 12.8513C11.0081 12.9546 10.6106 13.0766 9.87866 13.11C9.08734 13.146 8.84962 13.1539 6.84535 13.1539C4.84089 13.1539 4.60333 13.146 3.81201 13.11C3.08012 13.0763 2.68287 12.954 2.41812 12.8512C2.06779 12.7151 1.81757 12.5525 1.55485 12.2897C1.2921 12.0269 1.12945 11.7773 0.993088 11.4268C0.890341 11.1625 0.767889 10.7652 0.73456 10.0332C0.698612 9.24175 0.691406 9.00399 0.691406 6.99916C0.691406 4.99431 0.698612 4.75782 0.73456 3.96637C0.76803 3.23438 0.890341 2.83711 0.993088 2.57247C1.12914 2.2221 1.2921 1.97184 1.55485 1.70909C1.81757 1.44631 2.06779 1.28364 2.41812 1.14726C2.68272 1.04402 3.08012 0.922035 3.81201 0.888391C4.5045 0.857113 4.77288 0.847737 6.17192 0.846161V0.848047ZM10.8523 2.09468C10.3549 2.09468 9.95143 2.49775 9.95143 2.9953C9.95143 3.49266 10.3549 3.89621 10.8523 3.89621C11.3495 3.89621 11.753 3.49266 11.753 2.9953C11.753 2.49792 11.3495 2.09468 10.8523 2.09468ZM2.99054 7.00263C2.99054 4.87344 4.71661 3.14714 6.84555 3.14714C8.97449 3.14714 10.6999 4.87344 10.6999 7.00263C10.6999 9.13184 8.97446 10.8573 6.84555 10.8573C4.71661 10.8573 2.99054 9.13184 2.99054 7.00263Z" fill="#4040C2"/>
<path fill-rule="evenodd" clip-rule="evenodd" d="M6.84526 5.24177C7.81625 5.24177 8.60349 6.02891 8.60349 7.00002C8.60349 7.971 7.81625 8.75825 6.84526 8.75825C5.87416 8.75825 5.08701 7.971 5.08701 7.00002C5.08701 6.02891 5.87416 5.24177 6.84526 5.24177Z" fill="#4040C2"/>
</g>
</svg>
