<svg width="15" height="10" viewBox="0 0 15 10" fill="none" xmlns="http://www.w3.org/2000/svg">
<path opacity="0.99" fill-rule="evenodd" clip-rule="evenodd" d="M13.7986 1.61761C13.6426 1.01515 13.1853 0.540242 12.6054 0.378019C11.5459 0.0769196 7.30814 0.0769196 7.30814 0.0769196C7.30814 0.0769196 3.07051 0.0769196 2.01108 0.366603C1.44232 0.528654 0.973874 1.01524 0.817864 1.61761C0.539062 2.71798 0.539062 5 0.539062 5C0.539062 5 0.539062 7.29352 0.817864 8.38239C0.974039 8.98476 1.43116 9.45967 2.01116 9.62189C3.08166 9.92307 7.30831 9.92307 7.30831 9.92307C7.30831 9.92307 11.5459 9.92307 12.6054 9.63339C13.1854 9.47125 13.6426 8.99634 13.7987 8.39397C14.0775 7.29352 14.0775 5.01158 14.0775 5.01158C14.0775 5.01158 14.0886 2.71798 13.7986 1.61761ZM5.95892 7.10821V2.89179L9.48286 5L5.95892 7.10821Z" fill="#4040C2"/>
</svg>
